<svg width="120" height="38" viewBox="0 0 120 38" fill="none" xmlns="http://www.w3.org/2000/svg">
<rect x="0.5" y="0.5" width="119" height="37" rx="6.5" fill="black" stroke="#A6A6A6"/>
<path d="M42.1512 10.1022C42.1512 10.8489 41.929 11.4445 41.4845 11.88C40.9867 12.4045 40.329 12.6711 39.529 12.6711C38.7556 12.6711 38.1067 12.4045 37.5645 11.8711C37.0223 11.3378 36.7556 10.6711 36.7556 9.88891C36.7556 9.0978 37.0223 8.44002 37.5645 7.90669C38.1067 7.37336 38.7556 7.10669 39.529 7.10669C39.9112 7.10669 40.2756 7.1778 40.6223 7.32891C40.969 7.48002 41.2445 7.67558 41.4578 7.92447L40.9867 8.39558C40.6312 7.9778 40.1512 7.76447 39.529 7.76447C38.969 7.76447 38.4801 7.96002 38.0712 8.36002C37.6623 8.75113 37.4578 9.26669 37.4578 9.8978C37.4578 10.5289 37.6623 11.0445 38.0712 11.4356C38.4801 11.8267 38.969 12.0311 39.529 12.0311C40.1245 12.0311 40.6223 11.8356 41.0223 11.4356C41.2801 11.1778 41.4312 10.8134 41.4667 10.3511H39.529V9.71113H42.1156C42.1334 9.84447 42.1512 9.9778 42.1512 10.1022Z" fill="white" stroke="white" stroke-width="0.2" stroke-miterlimit="10"/>
<path d="M46.2489 7.88001H43.8223V9.5689H46.0089V10.2089H43.8223V11.8978H46.2489V12.5556H43.1378V7.22223H46.2489V7.88001Z" fill="white" stroke="white" stroke-width="0.2" stroke-miterlimit="10"/>
<path d="M49.1379 12.5556H48.4534V7.88001H46.9601V7.22223H50.6223V7.88001H49.129V12.5556H49.1379Z" fill="white" stroke="white" stroke-width="0.2" stroke-miterlimit="10"/>
<path d="M53.2801 12.5556V7.22223H53.9645V12.5556H53.2801Z" fill="white" stroke="white" stroke-width="0.2" stroke-miterlimit="10"/>
<path d="M57.0045 12.5556H56.3201V7.88001H54.8267V7.22223H58.4889V7.88001H56.9956V12.5556H57.0045Z" fill="white" stroke="white" stroke-width="0.2" stroke-miterlimit="10"/>
<path d="M65.4312 11.8622C64.9067 12.4045 64.2579 12.6711 63.4756 12.6711C62.6934 12.6711 62.0445 12.4045 61.5201 11.8622C60.9956 11.32 60.7379 10.6622 60.7379 9.88891C60.7379 9.11558 60.9956 8.44891 61.5201 7.91558C62.0445 7.37336 62.6934 7.10669 63.4756 7.10669C64.249 7.10669 64.8979 7.37336 65.4312 7.91558C65.9556 8.4578 66.2223 9.11558 66.2223 9.88891C66.2134 10.6711 65.9556 11.3289 65.4312 11.8622ZM62.0267 11.4178C62.4179 11.8178 62.9067 12.0134 63.4756 12.0134C64.0445 12.0134 64.5334 11.8178 64.9245 11.4178C65.3156 11.0178 65.5201 10.5111 65.5201 9.88891C65.5201 9.26669 65.3245 8.76002 64.9245 8.36002C64.5334 7.96002 64.0445 7.76447 63.4756 7.76447C62.9067 7.76447 62.4179 7.96002 62.0267 8.36002C61.6356 8.76002 61.4312 9.26669 61.4312 9.88891C61.4312 10.5111 61.6356 11.0178 62.0267 11.4178Z" fill="white" stroke="white" stroke-width="0.2" stroke-miterlimit="10"/>
<path d="M67.1823 12.5556V7.22223H68.0178L70.6134 11.3733H70.6401L70.6134 10.3422V7.22223H71.2978V12.5556H70.5867L67.8756 8.2089H67.8489L67.8756 9.24001V12.5556H67.1823Z" fill="white" stroke="white" stroke-width="0.2" stroke-miterlimit="10"/>
<path d="M60.5689 20.3334C58.48 20.3334 56.7733 21.9245 56.7733 24.1111C56.7733 26.2889 58.48 27.8889 60.5689 27.8889C62.6578 27.8889 64.3644 26.2889 64.3644 24.1111C64.3644 21.9245 62.6578 20.3334 60.5689 20.3334ZM60.5689 26.4045C59.4222 26.4045 58.4355 25.4622 58.4355 24.1111C58.4355 22.7511 59.4222 21.8178 60.5689 21.8178C61.7155 21.8178 62.7022 22.7511 62.7022 24.1111C62.7022 25.4622 61.7066 26.4045 60.5689 26.4045ZM52.2844 20.3334C50.1955 20.3334 48.4889 21.9245 48.4889 24.1111C48.4889 26.2889 50.1955 27.8889 52.2844 27.8889C54.3733 27.8889 56.08 26.2889 56.08 24.1111C56.08 21.9245 54.3733 20.3334 52.2844 20.3334ZM52.2844 26.4045C51.1378 26.4045 50.1511 25.4622 50.1511 24.1111C50.1511 22.7511 51.1378 21.8178 52.2844 21.8178C53.4311 21.8178 54.4178 22.7511 54.4178 24.1111C54.4178 25.4622 53.4311 26.4045 52.2844 26.4045ZM42.4355 21.4978V23.0978H46.2755C46.16 23.9956 45.8578 24.6622 45.4044 25.1156C44.8444 25.6756 43.9733 26.2889 42.4444 26.2889C40.08 26.2889 38.2311 24.3867 38.2311 22.0222C38.2311 19.6578 40.08 17.7556 42.4444 17.7556C43.7155 17.7556 44.6489 18.2534 45.3333 18.9022L46.4622 17.7734C45.5022 16.8578 44.2311 16.1556 42.4355 16.1556C39.2 16.1556 36.48 18.7867 36.48 22.0311C36.48 25.2667 39.2 27.9067 42.4355 27.9067C44.1866 27.9067 45.5022 27.3378 46.5333 26.2622C47.5911 25.2045 47.92 23.7111 47.92 22.5111C47.92 22.1378 47.8933 21.7911 47.8311 21.5067H42.4355V21.4978ZM82.7111 22.7422C82.4 21.8978 81.44 20.3334 79.4755 20.3334C77.5289 20.3334 75.9111 21.8622 75.9111 24.1111C75.9111 26.2267 77.5111 27.8889 79.6622 27.8889C81.3955 27.8889 82.4 26.8311 82.8089 26.2178L81.52 25.3556C81.0933 25.9867 80.5066 26.4045 79.6622 26.4045C78.8178 26.4045 78.2133 26.0134 77.8311 25.2578L82.8889 23.1689L82.7111 22.7422ZM77.5555 24.0045C77.5111 22.5467 78.6844 21.8 79.5289 21.8C80.1866 21.8 80.7467 22.1289 80.9333 22.6L77.5555 24.0045ZM73.4489 27.6667H75.1111V16.5556H73.4489V27.6667ZM70.7289 21.1778H70.6666C70.2933 20.7334 69.5822 20.3334 68.6755 20.3334C66.7822 20.3334 65.0489 21.9956 65.0489 24.1289C65.0489 26.2445 66.7822 27.8978 68.6755 27.8978C69.5733 27.8978 70.2933 27.4978 70.6666 27.0356H70.72V27.5778C70.72 29.0267 69.9466 29.8 68.7022 29.8C67.6889 29.8 67.0578 29.0711 66.8 28.4578L65.3511 29.0622C65.7689 30.0667 66.8711 31.2934 68.7022 31.2934C70.6489 31.2934 72.2933 30.1467 72.2933 27.3556V20.5645H70.72V21.1778H70.7289ZM68.8178 26.4045C67.6711 26.4045 66.7111 25.4445 66.7111 24.1289C66.7111 22.7956 67.6711 21.8267 68.8178 21.8267C69.9466 21.8267 70.8355 22.8045 70.8355 24.1289C70.8444 25.4445 69.9555 26.4045 68.8178 26.4045ZM90.4978 16.5556H86.5244V27.6667H88.1866V23.4534H90.5066C92.3466 23.4534 94.1511 22.12 94.1511 20.0045C94.1511 17.8889 92.3289 16.5556 90.4978 16.5556ZM90.5333 21.9067H88.1778V18.0934H90.5333C91.7778 18.0934 92.48 19.1245 92.48 19.9956C92.48 20.8667 91.7778 21.9067 90.5333 21.9067ZM100.791 20.3156C99.5911 20.3156 98.3466 20.8489 97.8311 22.0134L99.3066 22.6267C99.6178 22.0134 100.204 21.8089 100.818 21.8089C101.671 21.8089 102.551 22.3245 102.56 23.24V23.3556C102.258 23.1867 101.618 22.9289 100.827 22.9289C99.2355 22.9289 97.6266 23.8 97.6266 25.4267C97.6266 26.9111 98.9244 27.8711 100.382 27.8711C101.493 27.8711 102.116 27.3734 102.498 26.7867H102.551V27.6489H104.151V23.3911C104.16 21.4178 102.684 20.3156 100.791 20.3156ZM100.587 26.4045C100.044 26.4045 99.2889 26.1289 99.2889 25.4622C99.2889 24.6089 100.231 24.28 101.049 24.28C101.778 24.28 102.124 24.44 102.56 24.6534C102.436 25.6756 101.547 26.4045 100.587 26.4045ZM109.991 20.5556L108.089 25.3734H108.036L106.062 20.5556H104.276L107.236 27.2934L105.547 31.0356H107.28L111.84 20.5556H109.991ZM95.0578 27.6667H96.72V16.5556H95.0578V27.6667Z" fill="white"/>
<path d="M9.27995 7.70224C9.02218 7.97779 8.87106 8.40446 8.87106 8.94668V28.6089C8.87106 29.16 9.02218 29.5867 9.27995 29.8534L9.34217 29.9156L20.3555 18.9111V18.7778V18.6445L9.34217 7.64001L9.27995 7.70224Z" fill="url(#paint0_linear)"/>
<path d="M24.0266 22.5822L20.3555 18.9111V18.7778V18.6444L24.0266 14.9733L24.1066 15.0178L28.4533 17.4889C29.6977 18.1911 29.6977 19.3467 28.4533 20.0578L24.1066 22.5289L24.0266 22.5822Z" fill="url(#paint1_linear)"/>
<path d="M24.1066 22.5289L20.3555 18.7778L9.27997 29.8533C9.68886 30.2889 10.3644 30.3422 11.1289 29.9067L24.1066 22.5289Z" fill="url(#paint2_linear)"/>
<path d="M24.1066 15.0267L11.12 7.64888C10.3555 7.21332 9.67998 7.26666 9.27109 7.70221L20.3555 18.7778L24.1066 15.0267Z" fill="url(#paint3_linear)"/>
<path opacity="0.2" d="M24.0266 22.4489L11.12 29.7822C10.4 30.1911 9.75108 30.1644 9.34219 29.7911L9.27997 29.8533L9.34219 29.9155C9.75997 30.2889 10.4 30.3155 11.12 29.9066L24.1066 22.5289L24.0266 22.4489Z" fill="black"/>
<path opacity="0.12" d="M9.27995 29.7288C9.02218 29.4533 8.87106 29.0266 8.87106 28.4844V28.6177C8.87106 29.1688 9.02218 29.5955 9.27995 29.8622L9.34217 29.7999L9.27995 29.7288Z" fill="black"/>
<path opacity="0.12" d="M28.4533 19.9333L24.0177 22.4489L24.0977 22.5289L28.4444 20.0578C29.0666 19.7022 29.3777 19.24 29.3777 18.7778C29.3333 19.1955 29.0222 19.6133 28.4533 19.9333Z" fill="black"/>
<path opacity="0.25" d="M11.12 7.77388L28.4533 17.6228C29.0133 17.9428 29.3333 18.3517 29.3866 18.7783C29.3866 18.3161 29.0755 17.845 28.4533 17.4983L11.12 7.64944C9.87552 6.94721 8.86218 7.53388 8.86218 8.9561V9.08944C8.86218 7.65833 9.88441 7.07166 11.12 7.77388Z" fill="white"/>
<defs>
<linearGradient id="paint0_linear" x1="19.3775" y1="8.74197" x2="4.45977" y2="23.6597" gradientUnits="userSpaceOnUse">
<stop stop-color="#00A0FF"/>
<stop offset="0.00657445" stop-color="#00A1FF"/>
<stop offset="0.2601" stop-color="#00BEFF"/>
<stop offset="0.5122" stop-color="#00D2FF"/>
<stop offset="0.7604" stop-color="#00DFFF"/>
<stop offset="1" stop-color="#00E3FF"/>
</linearGradient>
<linearGradient id="paint1_linear" x1="30.075" y1="18.779" x2="8.56661" y2="18.779" gradientUnits="userSpaceOnUse">
<stop stop-color="#FFE000"/>
<stop offset="0.4087" stop-color="#FFBD00"/>
<stop offset="0.7754" stop-color="#FFA500"/>
<stop offset="1" stop-color="#FF9C00"/>
</linearGradient>
<linearGradient id="paint2_linear" x1="22.0684" y1="20.8187" x2="1.83881" y2="41.0483" gradientUnits="userSpaceOnUse">
<stop stop-color="#FF3A44"/>
<stop offset="1" stop-color="#C31162"/>
</linearGradient>
<linearGradient id="paint3_linear" x1="6.48647" y1="1.15661" x2="15.5199" y2="10.1899" gradientUnits="userSpaceOnUse">
<stop stop-color="#32A071"/>
<stop offset="0.0685" stop-color="#2DA771"/>
<stop offset="0.4762" stop-color="#15CF74"/>
<stop offset="0.8009" stop-color="#06E775"/>
<stop offset="1" stop-color="#00F076"/>
</linearGradient>
</defs>
</svg>
